<?xml version="1.0" standalone="no"?>
<!DOCTYPE svg PUBLIC "-//W3C//DTD SVG 20010904//EN"
 "http://www.w3.org/TR/2001/REC-SVG-20010904/DTD/svg10.dtd">
<svg version="1.0" xmlns="http://www.w3.org/2000/svg"
 width="996.000000pt" height="996.000000pt" viewBox="0 0 996.000000 996.000000"
 preserveAspectRatio="xMidYMid meet">
<metadata>
Created by potrace 1.14, written by Peter Selinger 2001-2017
</metadata>
<g transform="translate(0.000000,996.000000) scale(0.100000,-0.100000)"
fill="#000000" stroke="none">
<path d="M4689 9885 c-2 -2 -46 -6 -98 -10 -52 -4 -101 -8 -110 -10 -9 -1 -50
-6 -91 -10 -41 -4 -78 -9 -81 -10 -3 -2 -27 -6 -55 -10 -27 -3 -85 -12 -129
-20 -44 -8 -91 -16 -105 -19 -179 -31 -525 -131 -780 -226 -218 -81 -577 -253
-750 -360 -170 -106 -221 -138 -251 -159 -20 -14 -47 -33 -59 -41 -67 -45
-197 -143 -280 -210 -100 -81 -103 -85 -215 -183 -143 -127 -381 -376 -490
-512 -22 -27 -43 -52 -46 -55 -3 -3 -46 -59 -96 -125 -307 -407 -534 -831
-721 -1346 -54 -149 -144 -481 -177 -656 -3 -16 -10 -50 -15 -78 -12 -64 -21
-113 -25 -148 -28 -205 -30 -226 -43 -392 -14 -196 -7 -734 12 -845 3 -14 7
-54 10 -90 3 -36 8 -76 11 -90 2 -13 7 -42 10 -65 68 -472 235 -1002 458
-1452 79 -159 97 -192 190 -348 51 -84 203 -317 230 -350 4 -5 42 -55 84 -110
42 -55 112 -143 157 -195 210 -248 511 -536 731 -700 33 -25 69 -53 79 -62 69
-62 380 -261 611 -390 198 -111 505 -243 780 -336 222 -75 577 -164 750 -187
17 -3 48 -7 70 -10 22 -4 51 -8 65 -10 41 -6 220 -26 300 -33 104 -10 667 -8
765 1 44 5 105 11 134 13 30 3 100 12 155 20 56 8 117 17 136 19 61 9 242 46
325 67 44 11 90 22 103 24 111 21 518 161 717 247 370 159 846 445 1111 666
17 14 40 33 50 41 172 135 451 407 619 602 374 436 676 941 878 1473 96 251
193 594 232 820 2 17 7 41 10 55 3 14 8 41 11 60 2 19 7 47 10 62 3 15 7 42 9
60 5 54 15 141 20 168 27 156 27 909 0 1052 -2 9 -7 48 -10 85 -4 37 -8 75
-10 83 -2 8 -7 35 -10 60 -3 25 -10 68 -15 95 -5 28 -12 61 -14 75 -10 57 -38
181 -61 275 -14 55 -27 109 -30 119 -11 47 -70 231 -107 336 -275 773 -765
1500 -1368 2030 -47 41 -87 77 -90 80 -31 35 -315 248 -449 339 -457 309
-1049 570 -1553 687 -10 2 -26 6 -35 8 -123 31 -359 76 -483 92 -25 3 -56 7
-70 9 -14 3 -56 7 -95 11 -38 3 -86 8 -105 11 -42 6 -706 14 -711 8z"/>
</g>
</svg>
